<?xml version="1.0" encoding="UTF-8"?>
<svg width="327px" height="374px" viewBox="0 0 327 374" version="1.1" xmlns="http://www.w3.org/2000/svg" xmlns:xlink="http://www.w3.org/1999/xlink">
    <title>logo copy</title>
    <defs>
        <filter x="-27.4%" y="-27.6%" width="154.8%" height="155.1%" filterUnits="objectBoundingBox" id="filter-1">
            <feOffset dx="0" dy="0" in="SourceAlpha" result="shadowOffsetOuter1"></feOffset>
            <feGaussianBlur stdDeviation="17" in="shadowOffsetOuter1" result="shadowBlurOuter1"></feGaussianBlur>
            <feColorMatrix values="0 0 0 0 0   0 0 0 0 0   0 0 0 0 0  0 0 0 0.0694383741 0" type="matrix" in="shadowBlurOuter1" result="shadowMatrixOuter1"></feColorMatrix>
            <feMerge>
                <feMergeNode in="shadowMatrixOuter1"></feMergeNode>
                <feMergeNode in="SourceGraphic"></feMergeNode>
            </feMerge>
        </filter>
    </defs>
    <g id="Page-1" stroke="none" stroke-width="1" fill="none" fill-rule="evenodd">
        <g id="logo-copy" transform="translate(1, 1)">
            <g id="Group-6">
                <g id="Group-5">
                    <rect id="Rectangle-2" fill="#EFEFEF" fill-rule="nonzero" x="0" y="0.00335542117" width="186" height="184.740046"></rect>
                    <g id="Group-2" stroke-linecap="square" transform="translate(0.0116, 0)">
                        <line x1="185.714582" y1="123.426567" x2="0.508717871" y2="123.426567" id="Line-Copy" stroke="#FFFFFF"></line>
                        <line x1="185.714582" y1="138.48646" x2="0.508717871" y2="138.48646" id="Line-Copy-23" stroke="#FFFFFF"></line>
                        <line x1="185.714582" y1="107.82882" x2="0.508717871" y2="107.82882" id="Line-Copy-24" stroke="#FFFFFF"></line>
                        <line x1="185.714582" y1="77.1711802" x2="0.508717871" y2="77.1711802" id="Line-Copy-25" stroke="#FFFFFF"></line>
                        <line x1="185.714582" y1="61.5734332" x2="0.508717871" y2="61.5734332" id="Line-Copy-9" stroke="#FFFFFF"></line>
                        <line x1="185.714582" y1="30.9157933" x2="0.508717871" y2="30.9157933" id="Line-Copy-18" stroke="#FFFFFF"></line>
                        <line x1="185.714582" y1="45.9756867" x2="0.508717871" y2="45.9756867" id="Line-Copy-19" stroke="#FFFFFF"></line>
                        <line x1="185.714582" y1="154.084206" x2="0.508717871" y2="154.084206" id="Line-Copy-20" stroke="#FFFFFF"></line>
                        <line x1="185.714582" y1="169.681953" x2="0.508717871" y2="169.681953" id="Line-Copy-21" stroke="#FFFFFF"></line>
                        <line x1="185.714582" y1="15.3180467" x2="0.508717871" y2="15.3180467" id="Line-Copy-22" stroke="#FFFFFF"></line>
                        <line x1="185.714582" y1="92.2310733" x2="0.508717871" y2="92.2310733" id="Line-Copy-12" stroke="#FFFFFF"></line>
                        <line x1="185.714582" y1="0.258153406" x2="0.508717871" y2="0.258153406" id="Line-Copy-11" stroke="#EFEFEF"></line>
                        <line x1="185.714582" y1="184.741847" x2="0.508717871" y2="184.741847" id="Line-Copy-10" stroke="#EFEFEF"></line>
                        <line x1="92.7180732" y1="0.254387464" x2="92.7180732" y2="184.729417" id="Line" stroke="#FFFFFF"></line>
                        <line x1="77.578538" y1="0.254387464" x2="77.578538" y2="184.729417" id="Line-Copy-8" stroke="#FFFFFF"></line>
                        <line x1="61.8983055" y1="0.254387464" x2="61.8983055" y2="184.729417" id="Line-Copy-4" stroke="#FFFFFF"></line>
                        <line x1="108.398306" y1="0.254387464" x2="108.398306" y2="184.729417" id="Line-Copy-5" stroke="#FFFFFF"></line>
                        <line x1="124.078538" y1="0.254387464" x2="124.078538" y2="184.729417" id="Line-Copy-6" stroke="#FFFFFF"></line>
                        <line x1="139.218073" y1="0.254387464" x2="139.218073" y2="184.729417" id="Line-Copy-13" stroke="#FFFFFF"></line>
                        <line x1="154.898305" y1="0.254387464" x2="154.898305" y2="184.729417" id="Line-Copy-16" stroke="#FFFFFF"></line>
                        <line x1="170.037841" y1="0.254387464" x2="170.037841" y2="184.729417" id="Line-Copy-17" stroke="#FFFFFF"></line>
                        <line x1="31.0785382" y1="0.254387464" x2="31.0785382" y2="184.729417" id="Line-Copy-7" stroke="#FFFFFF"></line>
                        <line x1="46.7587708" y1="0.254387464" x2="46.7587708" y2="184.729417" id="Line-Copy-15" stroke="#FFFFFF"></line>
                        <line x1="15.9390033" y1="0.254387464" x2="15.9390033" y2="184.729417" id="Line-Copy-14" stroke="#FFFFFF"></line>
                        <line x1="0.258770712" y1="0.254387464" x2="0.258770712" y2="184.729417" id="Line-Copy-2" stroke="#EFEFEF"></line>
                        <line x1="185.718073" y1="0.254387464" x2="185.718073" y2="184.729417" id="Line-Copy-3" stroke="#FFFFFF"></line>
                    </g>
                </g>
                <g id="Group-4" transform="translate(32, 32)" stroke="#999999">
                    <path d="M58.2853475,122 C49.195896,122 39.7294733,120.275203 31.2160147,116.177379 C27.4931327,115.13288 24.8168722,113.353109 22.6463617,111.907762 C18.8157736,109.358361 17.6591046,108.593311 12.1239517,112.441464 L3.29439939,118.582474 L4.77184504,108.084806 C4.89828251,107.186904 5.07389018,106.316488 5.29398507,105.473559 L3.39782989e-15,113.293555 L4.05536585,91.3819914 C5.29632651,84.6775022 7.54878722,77.808092 14.5684101,71.9511122 C7.28186362,67.1661182 2.49596997,59.5362398 1.54066439,57.9328427 C-0.152193291,55.4040569 -0.257557877,52.0918968 1.301838,49.6157942 C2.79567369,47.2381858 5.57964019,46.0241853 8.56262872,46.443359 C20.9441383,48.188771 30.0382728,41.3216514 40.5606828,33.3710936 C42.4970497,31.9074213 44.4521482,30.4300056 46.4540753,28.9869484 C54.1456903,23.3544444 62.5420768,18.379333 71.9757195,19.6368542 C74.221156,17.813563 78.3818865,14.4372673 82.5566652,11.0678434 C97.3475116,-0.877463168 97.3475116,-0.879753737 100.286013,0.776326153 C109.330978,5.89345266 111.719242,18.4274349 106.837349,35.1714792 C106.657058,35.7899322 106.469743,36.4060948 106.273063,37.0199667 C109.176443,37.6361292 112.866545,35.9250757 113.320783,35.6158492 L117.334003,32.8832028 L120.059434,36.8481741 C122.040288,39.906081 124.395772,44.5421884 121.965362,49.4554546 C118.858277,55.7270267 114.554719,59.0368961 110.393989,62.2345274 C102.454182,68.3388885 94.24511,74.651691 91.6484585,106.300454 C91.5243622,107.782451 91.4143147,109.360652 91.3229989,110.911365 L91.1825129,113.332494 L89.054148,114.580853 C81.442142,119.040587 70.1868628,122 58.2853475,122" id="Fill-7"></path>
                    <path d="M86.9829147,105.911058 C91.0453048,56.4187779 109.52157,64.0555279 117.754057,47.4374651 C118.699997,45.5248417 118.629754,43.1678483 116.108028,39.2784657 C114.293415,40.6024133 105.688641,44.2169279 100.656896,38.9486241 C101.24928,37.3704234 101.825273,35.6547888 102.338047,33.8933428 L91.368758,45.7335945 C84.5605329,53.0823929 70.9440833,67.7799901 70.9440833,67.7799901 L86.9829147,105.911058 Z" id="Fill-8"></path>
                    <path d="M32.9002091,111.856224 C51.533351,121.034526 74.8844847,117.525377 86.6501966,110.62848 C86.7438539,109.043408 86.8585845,107.428558 86.9826803,105.909912 L70.9438488,67.7811355 L47.0073565,93.6164398 L32.9002091,111.856224 Z" id="Fill-9"></path>
                    <path d="M49.2125202,32.6894208 C57.1874485,26.8897054 64.9165262,22.4780734 73.2754502,24.5166781 C73.2754502,24.5166781 97.7574973,4.61394199 97.949495,4.72343534 C106.554269,9.58905336 105.507648,23.0209378 102.339686,33.894259 L47.0068882,93.6162103 L32.8997408,111.855995 C23.164053,109.363858 21.6187058,100.1993 9.41514526,108.688141 C10.8551279,98.4355636 20.9350067,91.6806816 19.9117995,86.8911062 C16.7227647,91.0301607 12.2670134,86.8590382 8.66822741,92.175444 C10.328305,83.1964218 13.6578259,76.5010945 24.2809177,71.1068094 L49.2125202,32.6894208 Z" id="Fill-10"></path>
                    <polygon id="Fill-12" points="71.847643 32.245738 61.9012262 40.7162545 47.0073565 93.5962828 88.2049094 49.1295069 97.0578764 20.5707184"></polygon>
                    <path d="M65.912339,33.4386653 C63.6645609,34.6847337 62.0536533,37.2913988 61.9108258,40.3836642 C61.9061432,40.495902 61.9014601,40.6081398 61.9014601,40.7203775 C61.9014601,40.7203775 71.136081,32.9187066 71.847877,32.2452799 L65.912339,33.4386653 Z" id="Fill-13"></path>
                    <path d="M116.107559,39.2784657 C115.156937,44.2123468 110.876793,47.9711672 105.704562,47.9711672 C101.138764,47.9711672 97.2449571,45.0690189 95.7417554,40.9941003 L104.632185,20.5714055 C104.718818,24.7906299 103.025961,32.9061085 100.656428,38.9302995 C105.924658,44.4093356 114.679284,40.3138019 116.107559,39.2784657" id="Fill-14"></path>
                    <path d="M93.2502345,8.37894686 C95.992055,6.18916484 97.8956418,4.67510013 97.949495,4.70716806 C100.1762,5.96468933 101.754327,7.8063051 102.817339,10.0212833 L99.0569936,14.1213982 L93.2502345,8.37894686 Z" id="Fill-15"></path>
                    <path d="M49.2357004,32.6534589 C37.0719443,41.4973379 24.3321951,53.582369 7.89766107,50.9573793 C4.98725706,50.4901036 4.16073044,53.58695 5.51876289,55.4858303 C5.51876289,55.4858303 13.5639344,69.2498469 24.2806835,71.0868814 L49.2357004,32.6534589 Z" id="Fill-16"></path>
                    <path d="M7.89812938,50.956463 C4.98772537,50.491478 4.16119872,53.5860341 5.51923114,55.4849139 C5.51923114,55.4849139 13.5644027,69.2489305 24.2811518,71.0882557 L34.2533245,55.7277141 C26.7607317,64.2669476 11.4758424,53.0912713 7.89812938,50.956463" id="Fill-17"></path>
                </g>
                <g id="Group-28" transform="translate(31, 30)">
                    <rect id="Rectangle-4" stroke="#CCCCCC" x="1.07505807" y="1.06436714" width="123.415959" height="123.575832"></rect>
                    <g id="Rectangle-3" transform="translate(123.3289, 0)">
                        <g id="path-1-link" transform="translate(0.2579, 0.259)" fill="#FFFFFF">
                            <rect id="path-1" x="0" y="0" width="2.1553342" height="2.15205847"></rect>
                        </g>
                        <rect id="Rectangle" stroke="#999999" x="0" y="0" width="2.67109133" height="2.6700171"></rect>
                    </g>
                    <g id="Rectangle-3-Copy-5" transform="translate(123.3289, 123.33)">
                        <g id="path-2-link" transform="translate(0.2579, 0.259)" fill="#FFFFFF">
                            <rect id="path-2" x="0" y="0" width="2.1553342" height="2.15205847"></rect>
                        </g>
                        <rect id="Rectangle" stroke="#999999" x="0" y="0" width="2.67109133" height="2.6700171"></rect>
                    </g>
                    <g id="Rectangle-3-Copy-3" transform="translate(123.3289, 61.127)">
                        <g id="path-3-link" transform="translate(0.2579, 0.259)" fill="#FFFFFF">
                            <rect id="path-3" x="0" y="0" width="2.1553342" height="2.15205847"></rect>
                        </g>
                        <rect id="Rectangle" stroke="#999999" x="0" y="0" width="2.67109133" height="2.6700171"></rect>
                    </g>
                    <g id="Rectangle-3-Copy">
                        <g id="path-4-link" transform="translate(0.2579, 0.259)" fill="#FFFFFF">
                            <rect id="path-4" x="0" y="0" width="2.1553342" height="2.15205847"></rect>
                        </g>
                        <rect id="Rectangle" stroke="#999999" x="0" y="0" width="2.67109133" height="2.6700171"></rect>
                    </g>
                    <g id="Rectangle-3-Copy-6" transform="translate(0, 123.33)">
                        <g id="path-5-link" transform="translate(0.2579, 0.259)" fill="#FFFFFF">
                            <rect id="path-5" x="0" y="0" width="2.1553342" height="2.15205847"></rect>
                        </g>
                        <rect id="Rectangle" stroke="#999999" x="0" y="0" width="2.67109133" height="2.6700171"></rect>
                    </g>
                    <g id="Rectangle-3-Copy-4" transform="translate(0, 61.127)">
                        <g id="path-6-link" transform="translate(0.2579, 0.259)" fill="#FFFFFF">
                            <rect id="path-6" x="0" y="0" width="2.1553342" height="2.15205847"></rect>
                        </g>
                        <rect id="Rectangle" stroke="#999999" x="0" y="0" width="2.67109133" height="2.6700171"></rect>
                    </g>
                    <g id="Rectangle-3-Copy-2" transform="translate(61.4475, 0)">
                        <g id="path-7-link" transform="translate(0.2579, 0.259)" fill="#FFFFFF">
                            <rect id="path-7" x="0" y="0" width="2.1553342" height="2.15205847"></rect>
                        </g>
                        <rect id="Rectangle" stroke="#999999" x="0" y="0" width="2.67109133" height="2.6700171"></rect>
                    </g>
                    <g id="Rectangle-3-Copy-7" transform="translate(61.4475, 123.33)">
                        <g id="path-8-link" transform="translate(0.2579, 0.259)" fill="#FFFFFF">
                            <rect id="path-8" x="0" y="0" width="2.1553342" height="2.15205847"></rect>
                        </g>
                        <rect id="Rectangle" stroke="#999999" x="0" y="0" width="2.67109133" height="2.6700171"></rect>
                    </g>
                </g>
            </g>
            <g id="Group-7" filter="url(#filter-1)" transform="translate(106, 154)" fill-rule="nonzero">
                <rect id="Rectangle-2-Copy" fill="#FFFFFF" x="0" y="0" width="186" height="185"></rect>
                <g id="Group-3" transform="translate(32, 31)">
                    <path d="M58.2853474,122 C49.195896,122 39.7294733,120.275203 31.2160148,116.177379 C27.4931327,115.132881 24.8168722,113.35311 22.6463617,111.907762 C18.8157737,109.358361 17.6591046,108.593312 12.1239517,112.441464 L3.2943994,118.582474 L4.77184504,108.084806 C4.89828254,107.186903 5.07389019,106.316488 5.29398509,105.473559 L2.67654668e-16,113.293555 L4.05536585,91.381992 C5.29632653,84.6775024 7.54878725,77.8080921 14.5684101,71.9511127 C7.28186362,67.1661184 2.49596997,59.5362396 1.54066439,57.9328431 C-0.152193291,55.404057 -0.257557878,52.091897 1.301838,49.6157943 C2.79567369,47.2381858 5.57964021,46.0241854 8.56262873,46.4433591 C20.9441383,48.1887711 30.0382728,41.3216514 40.5606829,33.3710936 C42.4970498,31.9074214 44.4521483,30.4300057 46.4540754,28.9869485 C54.14569,23.3544444 62.5420772,18.379333 71.9757198,19.6368543 C74.2211562,17.813563 78.3818863,14.4372674 82.5566653,11.0678434 C97.3475118,-0.877463169 97.3475118,-0.87975374 100.286013,0.776326156 C109.330978,5.8934527 111.719241,18.4274349 106.837349,35.1714792 C106.657058,35.7899323 106.469744,36.4060948 106.273063,37.0199668 C109.176443,37.6361293 112.866545,35.9250757 113.320783,35.6158492 L117.334004,32.8832029 L120.059434,36.8481742 C122.040288,39.9060811 124.395772,44.5421886 121.965362,49.4554546 C118.858278,55.7270268 114.55472,59.0368959 110.393989,62.2345276 C102.454182,68.3388882 94.2451102,74.651691 91.6484588,106.300454 C91.5243627,107.782451 91.4143151,109.360652 91.3229988,110.911365 L91.1825132,113.332495 L89.0541485,114.580854 C81.4421421,119.040588 70.1868629,122 58.2853474,122" id="Fill-7" fill="#000000"></path>
                    <path d="M86.9829148,105.911058 C91.0453049,56.4187782 109.52157,64.0555285 117.754057,47.4374651 C118.699997,45.5248418 118.629754,43.1678484 116.108028,39.2784657 C114.293415,40.6024134 105.688641,44.216928 100.656896,38.9486241 C101.24928,37.3704235 101.825273,35.6547888 102.338047,33.8933429 L91.3687577,45.7335946 L70.9440831,67.7799903 L86.9829148,105.911058 Z" id="Fill-8" fill="#E8E8E8"></path>
                    <path d="M32.9002091,111.856225 C51.5333509,121.034526 74.8844847,117.525377 86.650197,110.628481 C86.7438539,109.043408 86.8585845,107.428559 86.9826806,105.909913 L70.9438489,67.7811352 L47.0073565,93.6164397 L32.9002091,111.856225 Z" id="Fill-9" fill="#676868"></path>
                    <path d="M49.2125202,32.6894209 C57.1874486,26.8897054 64.9165264,22.4780735 73.2754503,24.5166781 C73.2754503,24.5166781 97.7574974,4.613942 97.9494948,4.72343535 C106.55427,9.58905339 105.507648,23.0209379 102.339686,33.8942591 L47.0068882,93.6162109 L32.8997408,111.855995 C23.1640531,109.363858 21.6187058,100.1993 9.4151453,108.688141 C10.855128,98.4355637 20.9350067,91.6806817 19.9117995,86.8911062 C16.7227647,91.0301609 12.2670134,86.8590385 8.66822746,92.1754442 C10.3283051,83.1964217 13.6578259,76.5010944 24.2809177,71.1068093 L49.2125202,32.6894209 Z" id="Fill-10" fill="#E8E8E8"></path>
                    <path d="M70.9422102,67.7811352 L47.008059,93.6187306 L71.2676696,68.5553472 L101.67823,39.8682867 C101.516672,39.7468867 101.067116,39.3826866 100.655024,38.9520599 C100.655024,38.9520599 101.701645,36.1850551 102.338515,33.8944882 L70.9422102,67.7811352 Z" id="Fill-11" fill-opacity="0.3" fill="#000000"></path>
                    <polygon id="Fill-12" fill="#FFFFFF" points="71.8476433 32.2457381 61.9012264 40.7162546 47.0073565 93.596283 88.2049096 49.1295069 97.0578765 20.5707184"></polygon>
                    <path d="M65.912339,33.4386653 C63.6645613,34.6847338 62.0536534,37.2913989 61.910826,40.3836643 C61.906143,40.4959021 61.9014601,40.6081399 61.9014601,40.7203776 C61.9014601,40.7203776 71.136081,32.9187067 71.8478774,32.24528 L65.912339,33.4386653 Z" id="Fill-13" fill="#000000"></path>
                    <path d="M116.107559,39.2784657 C115.156937,44.2123469 110.876793,47.9711673 105.704563,47.9711673 C101.138764,47.9711673 97.2449572,45.069019 95.7417558,40.9941004 L104.632185,20.5714056 C104.718818,24.7906299 103.025961,32.9061085 100.656428,38.9302996 C105.924658,44.4093357 114.679284,40.313802 116.107559,39.2784657" id="Fill-14" fill="#000000"></path>
                    <path d="M93.2502343,8.37894688 C95.9920549,6.18916489 97.8956419,4.67510013 97.9494948,4.70716807 C100.1762,5.96468934 101.754327,7.80630516 102.817339,10.0212833 L99.0569937,14.1213982 L93.2502343,8.37894688 Z" id="Fill-15" fill="#000000"></path>
                    <path d="M49.2357005,32.653459 C37.0719443,41.4973379 24.3321951,53.5823689 7.89766112,50.9573794 C4.98725709,50.4901037 4.16073044,53.5869501 5.51876291,55.4858304 C5.51876291,55.4858304 13.5639344,69.2498467 24.2806835,71.0868814 L49.2357005,32.653459 Z" id="Fill-16" fill="#676868"></path>
                    <path d="M7.89812936,50.9564632 C4.98772537,50.491478 4.16119873,53.5860341 5.51923116,55.4849139 C5.51923116,55.4849139 13.5644027,69.2489307 24.2811518,71.0882557 L34.2533246,55.7277139 C26.7607318,64.2669475 11.4758424,53.0912715 7.89812936,50.9564632" id="Fill-17" fill="#7E7F80"></path>
                </g>
            </g>
        </g>
    </g>
</svg>